<svg width="96" height="96" xmlns="http://www.w3.org/2000/svg" xmlns:xlink="http://www.w3.org/1999/xlink" overflow="hidden"><defs><clipPath id="clip0"><rect x="528" y="55" width="96" height="96"/></clipPath></defs><g clip-path="url(#clip0)" transform="translate(-528 -55)"><path d="M562.5 98.5C562.5 106.5 569 113 577 113 585 113 591.5 106.5 591.5 98.5 591.5 90.5 585 84 577 84 569 84 562.5 90.5 562.5 98.5ZM585.1 102.8 585.1 105.9 568.8 105.9 568.8 102.8C568.8 102.2 569.1 101.6 569.6 101.2 570.8 100.3 572.1 99.7 573.6 99.3 574.7 99 575.8 98.8 577 98.8 578.1 98.8 579.3 99 580.4 99.3 581.8 99.7 583.2 100.3 584.4 101.2 584.8 101.6 585.1 102.2 585.1 102.8ZM577 89.6C579.2 89.6 581.1 91.4 581.1 93.7L581.1 93.7C581.1 95.9 579.3 97.8 577 97.8 574.8 97.8 572.9 96 572.9 93.7 572.9 91.4 574.7 89.6 577 89.6Z" fill="#4472C4"/><path d="M619 87 622 87 622 90 619 90Z" fill="#4472C4"/><path d="M601.9 87 604.8 87 604.8 90 601.9 90Z" fill="#4472C4"/><path d="M607.7 87 610.6 87 610.6 90 607.7 90Z" fill="#4472C4"/><path d="M613.4 87 616.3 87 616.3 90 613.4 90Z" fill="#4472C4"/><path d="M596 87 599 87 599 90 596 90Z" fill="#4472C4"/><path d="M596 75 599 75 599 78 596 78Z" fill="#4472C4"/><path d="M596 81 599 81 599 84 596 84Z" fill="#4472C4"/><path d="M596 69 599 69 599 72 596 72Z" fill="#4472C4"/><path d="M596 63 599 63 599 66 596 66Z" fill="#4472C4"/><path d="M607.7 63 610.6 63 610.6 66 607.7 66Z" fill="#4472C4"/><path d="M613.4 63 616.3 63 616.3 66 613.4 66Z" fill="#4472C4"/><path d="M601.9 63 604.8 63 604.8 66 601.9 66Z" fill="#4472C4"/><path d="M619 63 622 63 622 66 619 66Z" fill="#4472C4"/><path d="M619 69 622 69 622 72 619 72Z" fill="#4472C4"/><path d="M619 75 622 75 622 78 619 78Z" fill="#4472C4"/><path d="M619 81 622 81 622 84 619 84Z" fill="#4472C4"/><path d="M598 115.5C598.1 115.7 598.3 115.8 598.5 115.8 598.6 115.8 598.7 115.7 598.8 115.5L600.3 111.4 605 116.1 607.1 114 602.4 109.3 606.5 107.8C606.7 107.7 606.8 107.5 606.8 107.3 606.8 107.2 606.7 107.1 606.5 107L594.6 103C594.6 103 594.5 103 594.5 103L594.5 103C594.3 103 594.1 103.2 594.1 103.4 594.1 103.4 594.1 103.5 594.1 103.5L598 115.5Z" fill="#4472C4"/><path d="M557 79 530 79 530 100 557 100 557 79ZM554 97 533 97 533 82 554 82 554 97Z" fill="#4472C4"/><path d="M537 84.5 549 84.5 549 87.5 537 87.5Z" fill="#4472C4"/><path d="M537 90.5 545 90.5 545 93.5 537 93.5Z" fill="#4472C4"/><path d="M613 70 601 70 601 76 611 76 611 85 617 85 617 74C617 71.8 615.2 70 613 70Z" fill="#4472C4"/><path d="M611 120 543 120 543 104 537 104 537 122C537 124.2 538.8 126 541 126L569 126 569 132 559 132 559 138 595 138 595 132 585 132 585 126 613 126C615.2 126 617 124.2 617 122L617 92 611 92 611 120Z" fill="#4472C4"/><path d="M594 70 541 70C538.8 70 537 71.8 537 74L537 76 594 76 594 70Z" fill="#4472C4"/></g></svg>