<svg width="96" height="96" xmlns="http://www.w3.org/2000/svg" xmlns:xlink="http://www.w3.org/1999/xlink" overflow="hidden"><defs><clipPath id="clip0"><rect x="537" y="152" width="96" height="96"/></clipPath></defs><g clip-path="url(#clip0)" transform="translate(-537 -152)"><path d="M585 212C578.4 212 573 206.6 573 200 573 193.4 578.4 188 585 188 591.6 188 597 193.4 597 200 597 206.6 591.6 212 585 212ZM612 192.5C611.4 190.3 610.5 188.2 609.4 186.3L611.9 178.8 606.2 173.1 598.7 175.6C596.7 174.5 594.6 173.6 592.4 173L589 166 581 166 577.5 173C575.3 173.6 573.2 174.5 571.3 175.6L563.8 173.1 558.1 178.8 560.6 186.3C559.5 188.3 558.6 190.4 558 192.6L551 196 551 204 558 207.5C558.6 209.7 559.5 211.8 560.6 213.7L558.1 221.2 563.8 226.9 571.3 224.4C573.3 225.5 575.4 226.4 577.6 227L581.1 234 589.1 234 592.6 227C594.8 226.4 596.9 225.5 598.8 224.4L606.3 226.9 612 221.2 609.5 213.7C610.6 211.7 611.5 209.6 612.1 207.4L619.1 203.9 619.1 195.9 612 192.5Z" fill="#7F7F7F"/></g></svg>