<?xml version="1.0" encoding="UTF-8" standalone="no"?>
<!DOCTYPE svg PUBLIC "-//W3C//DTD SVG 1.1//EN" "http://www.w3.org/Graphics/SVG/1.1/DTD/svg11.dtd">
<svg width="100%" height="100%" viewBox="0 0 840 261" version="1.1" xmlns="http://www.w3.org/2000/svg" xmlns:xlink="http://www.w3.org/1999/xlink" xml:space="preserve" xmlns:serif="http://www.serif.com/" style="fill-rule:evenodd;clip-rule:evenodd;stroke-linejoin:round;stroke-miterlimit:2;">
    <g id="图层-1" serif:id="图层 1" transform="matrix(4.16667,0,0,4.16667,0,0)">
        <g>
            <text x="66px" y="27.5px" style="font-family:'NotoSansCJKtc-Regular', 'Noto Sans CJK TC', sans-serif;font-size:21px;fill:rgb(35,25,22);">台灣簡儀科技</text>
            <text x="61.464px" y="52.7px" style="font-family:'NotoSansCJKtc-Regular', 'Noto Sans CJK TC', sans-serif;font-size:21px;fill:rgb(35,25,22);">JY<tspan x="83.556px " y="52.7px ">T</tspan>EK T<tspan x="137.63px " y="52.7px ">a</tspan>iw<tspan x="171.859px " y="52.7px ">a</tspan>n</text>
        </g>
        <g transform="matrix(1,0,0,1,48.6603,23.5793)">
            <path d="M0,15.744C0.493,13.286 0.759,10.641 0.759,7.871C0.759,4.545 0.374,1.395 -0.328,-1.466C4.243,0.651 7.195,3.786 7.195,7.216C7.195,10.565 4.383,13.628 0,15.744M-3.651,17.169C-6.7,18.108 -10.194,18.655 -13.873,18.655C-14.596,18.655 -15.312,18.636 -16.021,18.593L-3.306,-0.052C-2.746,2.407 -2.434,5.085 -2.434,7.871C-2.434,11.183 -2.875,14.345 -3.651,17.169M-13.873,28.94C-17.44,28.94 -20.688,25.747 -22.804,20.861C-20.053,21.498 -17.044,21.848 -13.873,21.848C-10.703,21.848 -7.692,21.498 -4.939,20.861C-7.056,25.747 -10.307,28.94 -13.873,28.94M-25.312,7.871C-25.312,3.983 -24.703,0.299 -23.658,-2.867C-20.714,-3.73 -17.378,-4.223 -13.873,-4.223C-12.818,-4.223 -11.782,-4.178 -10.762,-4.094L-17.569,5.823C-17.745,5.972 -17.881,6.166 -17.956,6.397L-24.432,15.831C-24.997,13.361 -25.312,10.672 -25.312,7.871M-13.873,-13.198C-10.674,-13.198 -7.735,-10.63 -5.633,-6.58C-8.196,-7.123 -10.966,-7.416 -13.873,-7.416C-16.778,-7.416 -19.548,-7.123 -22.112,-6.58C-20.011,-10.63 -17.071,-13.198 -13.873,-13.198M-12.263,8.55L-18.916,18.309C-20.173,18.132 -21.387,17.897 -22.55,17.603L-16.071,8.155L-12.263,8.55ZM-14.426,5.76L-7.91,-3.737C-6.7,-3.536 -5.53,-3.275 -4.416,-2.961L-10.628,6.152L-14.426,5.76ZM-27.745,15.744C-32.128,13.628 -34.94,10.565 -34.94,7.216C-34.94,3.786 -31.988,0.651 -27.417,-1.466C-28.12,1.395 -28.504,4.545 -28.504,7.871C-28.504,10.641 -28.239,13.286 -27.745,15.744M-1.582,-5.462C-4.166,-12.086 -8.659,-16.389 -13.873,-16.389C-19.086,-16.389 -23.579,-12.086 -26.164,-5.462C-33.377,-2.951 -38.133,1.735 -38.133,7.216C-38.133,12.558 -33.615,17.145 -26.706,19.699C-24.24,27.172 -19.471,32.133 -13.873,32.133C-8.274,32.133 -3.507,27.172 -1.04,19.699C5.869,17.145 10.387,12.558 10.387,7.216C10.387,1.735 5.63,-2.951 -1.582,-5.462" style="fill:rgb(157,30,35);fill-rule:nonzero;"/>
        </g>
    </g>
</svg>
