<?xml version="1.0" encoding="UTF-8" standalone="no"?><!DOCTYPE svg PUBLIC "-//W3C//DTD SVG 1.1//EN" "http://www.w3.org/Graphics/SVG/1.1/DTD/svg11.dtd"><svg width="100%" height="100%" viewBox="0 0 202 63" version="1.1" xmlns="http://www.w3.org/2000/svg" xmlns:xlink="http://www.w3.org/1999/xlink" xml:space="preserve" xmlns:serif="http://www.serif.com/" style="fill-rule:evenodd;clip-rule:evenodd;stroke-linejoin:round;stroke-miterlimit:2;"><g id="图层-1" serif:id="图层 1"><g><path d="M81.54,21.809l-0,4.641l-10.143,-0l0,-4.641l10.143,-0Zm-11.718,7.287l1.575,-0l0,-1.134l10.143,-0l-0,1.092l1.638,-0l-0,-8.736l-13.356,-0l-0,8.778Zm8.736,-15.981c1.008,0.903 2.079,1.995 3.045,3.087l-10.71,0.525c1.848,-1.743 3.717,-3.906 5.376,-6.174l-1.533,-0.693c-1.638,2.604 -4.074,5.25 -4.83,5.922c-0.693,0.693 -1.239,1.155 -1.701,1.239c0.168,0.42 0.441,1.197 0.504,1.533c0.819,-0.294 2.037,-0.336 14.028,-1.008c0.525,0.651 0.966,1.26 1.281,1.806l1.323,-0.945c-1.092,-1.743 -3.507,-4.305 -5.544,-6.09l-1.239,0.798Z" style="fill:#fff;fill-rule:nonzero;"/><path d="M106.95,16.559c-0.168,-0.589 -0.63,-1.512 -1.092,-2.206l-0.756,0.294c0.126,0.211 0.252,0.421 0.378,0.674l-1.827,0.23c0.924,-0.986 1.848,-2.163 2.583,-3.339l-0.966,-0.42c-0.168,0.315 -0.357,0.63 -0.567,0.945l-1.386,0.084c0.525,-0.693 1.05,-1.575 1.407,-2.436l-0.987,-0.357c-0.336,1.113 -1.071,2.289 -1.302,2.583c-0.231,0.315 -0.378,0.504 -0.63,0.525c0.126,0.21 0.294,0.63 0.357,0.819c0.21,-0.105 0.567,-0.168 1.953,-0.315c-0.567,0.757 -1.071,1.366 -1.302,1.597c-0.378,0.398 -0.672,0.649 -0.987,0.691c0.126,0.231 0.294,0.672 0.357,0.819c0.273,-0.105 0.798,-0.231 3.675,-0.63c0.126,0.294 0.231,0.546 0.294,0.777l0.798,-0.335Zm-1.933,3.548c-0.021,-0.693 -0.231,-1.827 -0.524,-2.729l-0.84,0.209c0.294,0.903 0.504,2.079 0.525,2.793l0.839,-0.273Zm-2.666,-2.73c-0.168,0.903 -0.399,1.827 -0.819,2.562c0.231,0.126 0.651,0.399 0.819,0.546c0.378,-0.777 0.714,-1.869 0.903,-2.898l-0.903,-0.21Zm-0.462,-5.353l-2.583,0l0.924,-0.273c-0.189,-0.441 -0.567,-1.176 -0.903,-1.659l-1.071,0.273c0.294,0.483 0.672,1.155 0.819,1.659l-2.226,0l-0,0.964l5.04,-0l-0,-0.964Zm-4.41,4.114l3.864,-0l-0,-0.859l-3.864,0l-0,0.859Zm3.864,-2.413l-3.864,0l-0,0.88l3.864,-0l-0,-0.88Zm-2.899,4.03l1.85,-0l0,1.388l-1.85,0l-0,-1.388Zm-1.027,2.247l3.946,-0l-0,-3.085l-3.946,0l0,3.085Zm-0.252,-3.505c-0.168,-0.546 -0.588,-1.429 -1.008,-2.08l-0.798,0.273c0.126,0.231 0.273,0.441 0.399,0.693l-1.848,0.231c0.945,-0.966 1.848,-2.164 2.583,-3.359l-0.947,-0.4c-0.168,0.315 -0.357,0.63 -0.566,0.945l-1.385,0.084c0.504,-0.693 1.05,-1.575 1.406,-2.457l-0.986,-0.357c-0.315,1.113 -1.092,2.31 -1.281,2.604c-0.231,0.294 -0.42,0.483 -0.651,0.525c0.126,0.189 0.294,0.609 0.357,0.798c0.21,-0.084 0.567,-0.168 1.932,-0.294c-0.546,0.756 -1.071,1.365 -1.302,1.575c-0.357,0.42 -0.651,0.693 -0.966,0.735c0.126,0.21 0.315,0.631 0.357,0.82c0.294,-0.147 0.777,-0.252 3.632,-0.652c0.105,0.232 0.189,0.463 0.252,0.652l0.82,-0.336Zm-1.64,0.84c0.336,0.777 0.652,1.743 0.736,2.352l0.798,-0.357c-0.105,-0.567 -0.42,-1.512 -0.756,-2.247l-0.778,0.252Zm-0.231,2.583c-0.021,-0.651 -0.231,-1.68 -0.503,-2.499l-0.818,0.21c0.252,0.819 0.441,1.911 0.462,2.583l0.859,-0.294Zm-3.148,-7.477c-0.588,-0.693 -1.89,-1.638 -2.94,-2.226l-0.903,1.029c1.05,0.651 2.331,1.638 2.898,2.331l0.945,-1.134Zm-0.357,5.398c-0.651,-0.651 -1.974,-1.555 -3.066,-2.08l-0.882,1.051c1.071,0.588 2.394,1.533 3.003,2.205l0.945,-1.176Zm-2.142,11.002c0.819,-1.91 1.743,-4.472 2.436,-6.656l-1.218,-0.819c-0.777,2.351 -1.869,5.06 -2.625,6.679l1.407,0.796Zm2.982,-11.38c-0.168,0.924 -0.399,1.848 -0.798,2.604c0.21,0.105 0.609,0.357 0.777,0.504c0.399,-0.735 0.714,-1.869 0.924,-2.898l-0.903,-0.21Zm2.539,7.455c0.105,-0.337 0.21,-0.694 0.294,-1.052l9.724,-0l0,-3.106l-11.675,0l0,1.006l10.226,-0l0,1.094l-9.47,0c-0.252,1.027 -0.567,2.247 -0.903,3.127l11.045,-0c-0.273,1.03 -0.546,1.577 -0.903,1.808c-0.21,0.147 -0.42,0.168 -0.882,0.168c-0.525,0 -1.89,-0.021 -3.234,-0.147c0.231,0.336 0.399,0.839 0.441,1.195c1.323,0.084 2.583,0.105 3.213,0.084c0.693,-0 1.134,-0.084 1.575,-0.398c0.567,-0.419 0.987,-1.343 1.386,-3.15c0.063,-0.189 0.084,-0.629 0.084,-0.629l-10.921,0Zm10.081,-7.623c0.399,0.882 0.756,2.016 0.861,2.751l0.798,-0.378c-0.105,-0.672 -0.462,-1.785 -0.903,-2.646l-0.756,0.273Z" style="fill:#fff;fill-rule:nonzero;"/><path d="M113.965,12.589l-0.799,0.609c0.673,0.61 1.492,1.451 1.891,1.976l1.027,-0.883c-0.399,-0.462 -1.111,-1.177 -1.741,-1.702l4.031,-0l-0,-1.258l-5.376,0c0.189,-0.378 0.399,-0.756 0.567,-1.155l-1.387,-0.378c-0.714,1.617 -1.93,3.19 -3.232,4.241c0.315,0.231 0.84,0.757 1.071,1.009c0.755,-0.652 1.51,-1.513 2.161,-2.459l1.787,-0Zm2.1,3.675l0,1.157l-4.454,0l-0,-1.157l4.454,-0Zm-4.454,3.32l-0,-1.178l4.454,-0l0,1.178l-4.454,0Zm5.88,1.027l-0,-5.374l-7.327,0l0,13.858l1.447,-0l-0,-8.484l5.88,-0Zm3.509,2.058l0,1.367l-4.916,0l-0,-1.367l4.916,-0Zm-4.916,3.719l-0,-1.388l4.916,-0l0,1.388l-4.916,0Zm6.3,0.985l-0,-5.689l-7.726,0l0,6.445l1.426,-0l-0,-0.756l6.3,-0Zm2.984,-9.952l-4.685,0l-0,-1.157l4.685,-0l0,1.157Zm-4.685,2.163l-0,-1.178l4.685,-0l0,1.178l-4.685,0Zm7.308,-8.232l-6.3,0c0.189,-0.399 0.357,-0.798 0.484,-1.218l-1.429,-0.336c-0.566,1.638 -1.594,3.232 -2.812,4.241c0.357,0.21 0.945,0.694 1.197,0.925c0.692,-0.631 1.342,-1.45 1.909,-2.375l2.122,-0l-0.903,0.735c0.735,0.589 1.575,1.388 1.996,1.913l-4.998,0l0,5.374l6.111,-0l0,6.7c0,0.294 -0.105,0.399 -0.441,0.42c-0.315,0 -1.408,0.021 -2.605,-0.042c0.21,0.42 0.441,1.008 0.483,1.407c1.576,0.021 2.605,0 3.234,-0.252c0.587,-0.231 0.776,-0.651 0.776,-1.533l-0,-12.074l-2.518,0l1.008,-0.925c-0.399,-0.483 -1.26,-1.198 -1.933,-1.723l4.619,-0l-0,-1.237Z" style="fill:#fff;fill-rule:nonzero;"/><path d="M135.657,12.024l0,1.132l5.46,-0l-0,1.262l-4.746,0l0,1.069l4.746,-0l-0,1.367l-6.111,0l-0,1.153l14.049,-0l-0,-1.153l-6.426,0l-0,-1.367l5.019,-0l-0,-1.069l-5.019,0l-0,-1.262l5.733,-0l-0,-1.132l-3.255,0c0.399,-0.483 0.84,-1.029 1.239,-1.638l-1.491,-0.483c-0.315,0.588 -0.861,1.512 -1.302,2.121l-3.15,0c-0.273,-0.588 -0.882,-1.47 -1.428,-2.079l-1.239,0.462c0.378,0.483 0.798,1.092 1.092,1.617l-3.171,0Zm9.408,7.097c0.882,0.588 1.932,1.492 2.436,2.08l0.966,-0.778c-0.504,-0.609 -1.596,-1.45 -2.478,-1.996l-0.924,0.694Zm-10.689,-9.134c-1.113,3.127 -2.94,6.194 -4.893,8.167c0.252,0.357 0.693,1.135 0.84,1.471c0.672,-0.715 1.302,-1.534 1.932,-2.414l-0,11.863l1.491,-0l-0,-14.279c0.777,-1.408 1.47,-2.897 2.016,-4.388l-1.386,-0.42Zm12.495,12.976c-0.441,0.714 -1.029,1.387 -1.701,2.017c-0.231,-0.672 -0.441,-1.45 -0.588,-2.311l4.578,-0l-0,-1.153l-4.746,0c-0.126,-0.925 -0.189,-1.933 -0.21,-3.005l-1.365,0c0.021,1.051 0.105,2.059 0.21,3.005l-3.402,0l-0,-1.66c0.84,-0.147 1.638,-0.315 2.31,-0.504l-0.903,-0.946c-1.407,0.441 -3.969,0.799 -6.111,1.009c0.147,0.252 0.294,0.693 0.357,0.966c0.945,-0.063 1.953,-0.168 2.961,-0.315l-0,1.45l-3.423,0l-0,1.153l3.423,-0l-0,1.639c-1.344,0.189 -2.562,0.336 -3.528,0.441l0.168,1.197l3.36,-0.462l-0,2.08c-0,0.231 -0.084,0.273 -0.315,0.294c-0.231,0.021 -1.029,0.021 -1.89,-0.021c0.189,0.357 0.378,0.859 0.441,1.195c1.197,-0 1.995,-0 2.478,-0.189c0.525,-0.209 0.672,-0.545 0.672,-1.258l-0,-2.29l2.646,-0.378l-0.021,-1.135l-2.625,0.357l-0,-1.47l3.57,-0c0.21,1.218 0.483,2.311 0.861,3.235c-1.008,0.735 -2.1,1.386 -3.213,1.869c0.273,0.231 0.735,0.777 0.924,1.029c0.945,-0.483 1.911,-1.071 2.835,-1.743c0.735,1.281 1.722,2.037 2.919,2.037c1.176,-0.021 1.638,-0.567 1.827,-2.52c-0.336,-0.126 -0.756,-0.357 -1.071,-0.651c-0.063,1.386 -0.21,1.827 -0.672,1.848c-0.714,0 -1.386,-0.567 -1.932,-1.596c0.945,-0.82 1.785,-1.765 2.436,-2.794l-1.26,-0.42Z" style="fill:#fff;fill-rule:nonzero;"/><path d="M164.973,14.249c-0.693,-0.882 -2.163,-2.079 -3.423,-2.877l-0.987,0.903c1.239,0.861 2.688,2.1 3.339,2.982l1.071,-1.008Zm-0.504,5.523c-0.777,-0.903 -2.415,-2.142 -3.759,-2.961l-0.966,0.924c1.323,0.84 2.94,2.142 3.696,3.066l1.029,-1.029Zm-5.523,1.491c-0.441,-0.567 -2.247,-2.877 -2.898,-3.612l-0,-0.378l3.087,-0l-0,-1.47l-3.087,-0l-0,-3.507c1.008,-0.231 1.974,-0.525 2.751,-0.84l-0.945,-1.239c-1.575,0.693 -4.326,1.302 -6.678,1.68c0.168,0.336 0.378,0.882 0.462,1.218c0.924,-0.126 1.911,-0.294 2.877,-0.483l-0,3.171l-3.528,-0l-0,1.47l3.318,0c-0.819,2.415 -2.289,5.103 -3.612,6.594c0.252,0.357 0.63,0.987 0.777,1.407c1.092,-1.302 2.184,-3.381 3.045,-5.481l-0,9.282l1.533,0l-0,-9.723c0.714,1.071 1.596,2.436 1.953,3.129l0.945,-1.218Zm11.235,1.89l-0.231,-1.428l-2.457,0.378l-0,-12.18l-1.533,0l-0,12.432l-7.098,1.134l0.252,1.491l6.846,-1.134l-0,5.229l1.533,0l-0,-5.481l2.688,-0.441Z" style="fill:#fff;fill-rule:nonzero;"/><path d="M178.665,19.1c-0.777,0.231 -1.575,0.462 -2.331,0.672l0,-4.158l2.331,0l0,-1.47l-2.331,0l0,-4.2l-1.533,0l-0,4.2l-2.688,0l-0,1.47l2.688,0l-0,4.578c-1.113,0.315 -2.121,0.567 -2.961,0.756l0.441,1.533l2.52,-0.735l-0,5.481c-0,0.294 -0.105,0.399 -0.42,0.399c-0.252,0.021 -1.155,0.021 -2.163,-0c0.21,0.42 0.441,1.029 0.504,1.428c1.428,0.021 2.31,-0.021 2.835,-0.273c0.546,-0.252 0.777,-0.672 0.777,-1.554l0,-5.943c0.819,-0.252 1.68,-0.504 2.52,-0.756l-0.189,-1.428Zm9.345,0.147c-0.756,1.911 -1.932,3.528 -3.381,4.83c-1.323,-1.344 -2.373,-3.003 -3.087,-4.83l6.468,-0Zm0.987,-1.512l-0.252,0.063l-3.339,-0l0,-3.129l5.019,-0l0,-1.449l-5.019,-0l0,-3.297l-1.533,-0l-0,3.297l-4.914,-0l-0,1.449l4.914,-0l-0,3.129l-4.494,-0l-0,1.449l0.693,-0l-0.063,0.021c0.819,2.247 1.974,4.179 3.444,5.754c-1.701,1.239 -3.654,2.121 -5.691,2.667c0.294,0.336 0.672,0.987 0.84,1.407c2.142,-0.672 4.179,-1.638 5.964,-3.003c1.554,1.365 3.423,2.373 5.607,3.045c0.231,-0.42 0.672,-1.029 1.008,-1.344c-2.1,-0.567 -3.906,-1.47 -5.418,-2.709c1.89,-1.743 3.381,-4.032 4.263,-6.909l-1.029,-0.441Z" style="fill:#fff;fill-rule:nonzero;"/><path d="M66.442,52.972c3.002,-0 4.219,-2.14 4.219,-4.786l-0,-10.878l-1.93,0l0,10.689c0,2.331 -0.819,3.276 -2.478,3.276c-1.113,0 -1.974,-0.504 -2.667,-1.722l-1.386,0.987c0.903,1.595 2.289,2.434 4.242,2.434Z" style="fill:#fff;fill-rule:nonzero;"/><path d="M77.32,52.699l1.95,-0l0,-5.984l4.62,-9.407l-2.016,0l-1.995,4.347c-0.462,1.133 -0.986,2.204 -1.531,3.359l-0.084,-0c-0.545,-1.155 -1.007,-2.226 -1.511,-3.359l-1.974,-4.347l-2.079,0l4.62,9.407l0,5.984Z" style="fill:#fff;fill-rule:nonzero;"/><path d="M88.87,52.699l1.95,-0l0,-13.755l4.662,-0l0,-1.636l-11.274,0l-0,1.636l4.662,-0l-0,13.755Z" style="fill:#fff;fill-rule:nonzero;"/><path d="M98.236,52.699l9.111,-0l0,-1.657l-7.161,0l0,-5.609l5.838,-0l0,-1.657l-5.838,0l0,-4.832l6.93,-0l0,-1.636l-8.88,0l-0,15.391Z" style="fill:#fff;fill-rule:nonzero;"/><path d="M110.583,52.699l1.951,-0l-0,-4.871l2.646,-3.15l4.599,8.021l2.184,-0l-5.565,-9.533l4.809,-5.858l-2.184,0l-6.426,7.727l-0.063,-0l-0,-7.727l-1.951,0l0,15.391Z" style="fill:#fff;fill-rule:nonzero;"/><path d="M132.066,52.699l1.951,-0l-0,-13.755l4.662,-0l-0,-1.636l-11.275,0l0,1.636l4.662,-0l0,13.755Z" style="fill:#fff;fill-rule:nonzero;"/><path d="M142.186,52.972c1.408,-0 2.69,-0.734 3.782,-1.636l0.063,0l0.168,1.363l1.572,-0l0,-7.014c0,-2.814 -1.174,-4.681 -3.946,-4.681c-1.828,0 -3.445,0.818 -4.494,1.489l0.755,1.323c0.903,-0.609 2.1,-1.218 3.424,-1.218c1.87,-0 2.353,1.407 2.353,2.877c-4.853,0.546 -7.014,1.785 -7.014,4.263c0,2.06 1.426,3.234 3.337,3.234Zm0.546,-1.531c-1.134,0 -2.017,-0.525 -2.017,-1.827c0,-1.471 1.303,-2.416 5.148,-2.878l0,3.193c-1.114,0.987 -2.017,1.512 -3.131,1.512Z" style="fill:#fff;fill-rule:nonzero;"/><path d="M151.407,52.699l1.908,-0l0,-11.401l-1.908,0l-0,11.401Zm0.965,-13.755c0.755,-0 1.321,-0.525 1.321,-1.238c0,-0.776 -0.566,-1.238 -1.321,-1.238c-0.756,0 -1.322,0.462 -1.322,1.238c-0,0.713 0.566,1.238 1.322,1.238Z" style="fill:#fff;fill-rule:nonzero;"/><path d="M158.987,52.699l2.247,-0l1.595,-6.11c0.294,-1.093 0.525,-2.164 0.777,-3.319l0.105,-0c0.273,1.155 0.483,2.205 0.777,3.277l1.659,6.152l2.31,-0l3.065,-11.401l-1.806,0l-1.679,6.593c-0.252,1.093 -0.462,2.122 -0.714,3.193l-0.084,0c-0.273,-1.071 -0.525,-2.1 -0.798,-3.193l-1.785,-6.593l-1.869,0l-1.763,6.593c-0.294,1.072 -0.525,2.122 -0.777,3.193l-0.105,0c-0.21,-1.071 -0.441,-2.1 -0.672,-3.193l-1.701,-6.593l-1.952,0l3.17,11.401Z" style="fill:#fff;fill-rule:nonzero;"/><path d="M176.416,52.972c1.407,-0 2.689,-0.734 3.781,-1.636l0.063,0l0.168,1.363l1.573,-0l-0,-7.014c-0,-2.814 -1.175,-4.681 -3.947,-4.681c-1.828,0 -3.445,0.818 -4.493,1.489l0.755,1.323c0.902,-0.609 2.1,-1.218 3.423,-1.218c1.87,-0 2.353,1.407 2.353,2.877c-4.853,0.546 -7.014,1.785 -7.014,4.263c0,2.06 1.426,3.234 3.338,3.234Zm0.546,-1.531c-1.135,0 -2.017,-0.525 -2.017,-1.827c-0,-1.471 1.302,-2.416 5.147,-2.878l0,3.193c-1.113,0.987 -2.017,1.512 -3.13,1.512Z" style="fill:#fff;fill-rule:nonzero;"/><path d="M185.636,52.699l1.909,-0l-0,-8.274c1.155,-1.155 1.954,-1.743 3.13,-1.743c1.513,-0 2.164,0.903 2.164,3.045l0,6.972l1.909,-0l-0,-7.224c-0,-2.919 -1.091,-4.471 -3.485,-4.471c-1.554,0 -2.731,0.86 -3.823,1.93l-0.063,-0l-0.168,-1.636l-1.573,0l0,11.401Z" style="fill:#fff;fill-rule:nonzero;"/></g><path d="M48.66,39.323c0.493,-2.458 0.759,-5.103 0.759,-7.873c0,-3.326 -0.385,-6.476 -1.087,-9.337c4.571,2.117 7.523,5.252 7.523,8.682c0,3.349 -2.812,6.412 -7.195,8.528m-3.651,1.425c-3.049,0.939 -6.543,1.486 -10.222,1.486c-0.723,0 -1.439,-0.019 -2.148,-0.062l12.715,-18.645c0.56,2.459 0.872,5.137 0.872,7.923c0,3.312 -0.441,6.474 -1.217,9.298m-10.222,11.771c-3.567,0 -6.815,-3.193 -8.931,-8.079c2.751,0.637 5.76,0.987 8.931,0.987c3.17,0 6.181,-0.35 8.934,-0.987c-2.117,4.886 -5.368,8.079 -8.934,8.079m-11.439,-21.069c0,-3.888 0.609,-7.572 1.654,-10.738c2.944,-0.863 6.28,-1.356 9.785,-1.356c1.055,0 2.091,0.045 3.111,0.129l-6.807,9.917c-0.176,0.149 -0.312,0.343 -0.387,0.574l-6.476,9.434c-0.565,-2.47 -0.88,-5.159 -0.88,-7.96m11.439,-21.069c3.199,0 6.138,2.568 8.24,6.618c-2.563,-0.543 -5.333,-0.836 -8.24,-0.836c-2.905,0 -5.675,0.293 -8.239,0.836c2.101,-4.05 5.041,-6.618 8.239,-6.618m1.61,21.748l-6.653,9.759c-1.257,-0.177 -2.471,-0.412 -3.634,-0.706l6.479,-9.448l3.808,0.395Zm-2.163,-2.79l6.516,-9.497c1.21,0.201 2.38,0.462 3.494,0.776l-6.212,9.113l-3.798,-0.392Zm-13.319,9.984c-4.383,-2.116 -7.195,-5.179 -7.195,-8.528c0,-3.43 2.952,-6.565 7.523,-8.682c-0.703,2.861 -1.087,6.011 -1.087,9.337c0,2.77 0.265,5.415 0.759,7.873m26.163,-21.206c-2.584,-6.624 -7.077,-10.927 -12.291,-10.927c-5.213,0 -9.706,4.303 -12.291,10.927c-7.213,2.511 -11.969,7.197 -11.969,12.678c0,5.342 4.518,9.929 11.427,12.483c2.466,7.473 7.235,12.434 12.833,12.434c5.599,0 10.366,-4.961 12.833,-12.434c6.909,-2.554 11.427,-7.141 11.427,-12.483c0,-5.481 -4.757,-10.167 -11.969,-12.678" style="fill:#9d1e23;fill-rule:nonzero;stroke:#fff;stroke-width:2.07px;"/><path d="M48.66,39.323c0.493,-2.458 0.759,-5.103 0.759,-7.873c0,-3.326 -0.385,-6.476 -1.087,-9.337c4.571,2.117 7.523,5.252 7.523,8.682c0,3.349 -2.812,6.412 -7.195,8.528m-3.651,1.425c-3.049,0.939 -6.543,1.486 -10.222,1.486c-0.723,0 -1.439,-0.019 -2.148,-0.062l12.715,-18.645c0.56,2.459 0.872,5.137 0.872,7.923c0,3.312 -0.441,6.474 -1.217,9.298m-10.222,11.771c-3.567,0 -6.815,-3.193 -8.931,-8.079c2.751,0.637 5.76,0.987 8.931,0.987c3.17,0 6.181,-0.35 8.934,-0.987c-2.117,4.886 -5.368,8.079 -8.934,8.079m-11.439,-21.069c0,-3.888 0.609,-7.572 1.654,-10.738c2.944,-0.863 6.28,-1.356 9.785,-1.356c1.055,0 2.091,0.045 3.111,0.129l-6.807,9.917c-0.176,0.149 -0.312,0.343 -0.387,0.574l-6.476,9.434c-0.565,-2.47 -0.88,-5.159 -0.88,-7.96m11.439,-21.069c3.199,0 6.138,2.568 8.24,6.618c-2.563,-0.543 -5.333,-0.836 -8.24,-0.836c-2.905,0 -5.675,0.293 -8.239,0.836c2.101,-4.05 5.041,-6.618 8.239,-6.618m1.61,21.748l-6.653,9.759c-1.257,-0.177 -2.471,-0.412 -3.634,-0.706l6.479,-9.448l3.808,0.395Zm-2.163,-2.79l6.516,-9.497c1.21,0.201 2.38,0.462 3.494,0.776l-6.212,9.113l-3.798,-0.392Zm-13.319,9.984c-4.383,-2.116 -7.195,-5.179 -7.195,-8.528c0,-3.43 2.952,-6.565 7.523,-8.682c-0.703,2.861 -1.087,6.011 -1.087,9.337c0,2.77 0.265,5.415 0.759,7.873m26.163,-21.206c-2.584,-6.624 -7.077,-10.927 -12.291,-10.927c-5.213,0 -9.706,4.303 -12.291,10.927c-7.213,2.511 -11.969,7.197 -11.969,12.678c0,5.342 4.518,9.929 11.427,12.483c2.466,7.473 7.235,12.434 12.833,12.434c5.599,0 10.366,-4.961 12.833,-12.434c6.909,-2.554 11.427,-7.141 11.427,-12.483c0,-5.481 -4.757,-10.167 -11.969,-12.678" style="fill:#9d1e23;fill-rule:nonzero;"/></g></svg>