<?xml version="1.0" encoding="UTF-8" standalone="no"?><!DOCTYPE svg PUBLIC "-//W3C//DTD SVG 1.1//EN" "http://www.w3.org/Graphics/SVG/1.1/DTD/svg11.dtd"><svg width="100%" height="100%" viewBox="0 0 202 63" version="1.1" xmlns="http://www.w3.org/2000/svg" xmlns:xlink="http://www.w3.org/1999/xlink" xml:space="preserve" xmlns:serif="http://www.serif.com/" style="fill-rule:evenodd;clip-rule:evenodd;stroke-linejoin:round;stroke-miterlimit:2;"><g id="图层-1" serif:id="图层 1"><g><text x="66px" y="27.5px" style="font-family:'NotoSansCJKtc-Regular', 'Noto Sans CJK TC', sans-serif;font-size:21px;fill:#fff;">台灣簡儀科技</text><text x="61.464px" y="52.7px" style="font-family:'NotoSansCJKtc-Regular', 'Noto Sans CJK TC', sans-serif;font-size:21px;fill:#fff;">JY<tspan x="83.556px " y="52.7px ">T</tspan>EK T<tspan x="137.63px " y="52.7px ">a</tspan>iw<tspan x="171.859px " y="52.7px ">a</tspan>n</text></g><path d="M48.66,39.323c0.493,-2.458 0.759,-5.103 0.759,-7.873c0,-3.326 -0.385,-6.476 -1.087,-9.337c4.571,2.117 7.523,5.252 7.523,8.682c0,3.349 -2.812,6.412 -7.195,8.528m-3.651,1.425c-3.049,0.939 -6.543,1.486 -10.222,1.486c-0.723,0 -1.439,-0.019 -2.148,-0.062l12.715,-18.645c0.56,2.459 0.872,5.137 0.872,7.923c0,3.312 -0.441,6.474 -1.217,9.298m-10.222,11.771c-3.567,0 -6.815,-3.193 -8.931,-8.079c2.751,0.637 5.76,0.987 8.931,0.987c3.17,0 6.181,-0.35 8.934,-0.987c-2.117,4.886 -5.368,8.079 -8.934,8.079m-11.439,-21.069c0,-3.888 0.609,-7.572 1.654,-10.738c2.944,-0.863 6.28,-1.356 9.785,-1.356c1.055,0 2.091,0.045 3.111,0.129l-6.807,9.917c-0.176,0.149 -0.312,0.343 -0.387,0.574l-6.476,9.434c-0.565,-2.47 -0.88,-5.159 -0.88,-7.96m11.439,-21.069c3.199,0 6.138,2.568 8.24,6.618c-2.563,-0.543 -5.333,-0.836 -8.24,-0.836c-2.905,0 -5.675,0.293 -8.239,0.836c2.101,-4.05 5.041,-6.618 8.239,-6.618m1.61,21.748l-6.653,9.759c-1.257,-0.177 -2.471,-0.412 -3.634,-0.706l6.479,-9.448l3.808,0.395Zm-2.163,-2.79l6.516,-9.497c1.21,0.201 2.38,0.462 3.494,0.776l-6.212,9.113l-3.798,-0.392Zm-13.319,9.984c-4.383,-2.116 -7.195,-5.179 -7.195,-8.528c0,-3.43 2.952,-6.565 7.523,-8.682c-0.703,2.861 -1.087,6.011 -1.087,9.337c0,2.77 0.265,5.415 0.759,7.873m26.163,-21.206c-2.584,-6.624 -7.077,-10.927 -12.291,-10.927c-5.213,0 -9.706,4.303 -12.291,10.927c-7.213,2.511 -11.969,7.197 -11.969,12.678c0,5.342 4.518,9.929 11.427,12.483c2.466,7.473 7.235,12.434 12.833,12.434c5.599,0 10.366,-4.961 12.833,-12.434c6.909,-2.554 11.427,-7.141 11.427,-12.483c0,-5.481 -4.757,-10.167 -11.969,-12.678" style="fill:#9d1e23;fill-rule:nonzero;stroke:#fff;stroke-width:2.07px;"/><path d="M48.66,39.323c0.493,-2.458 0.759,-5.103 0.759,-7.873c0,-3.326 -0.385,-6.476 -1.087,-9.337c4.571,2.117 7.523,5.252 7.523,8.682c0,3.349 -2.812,6.412 -7.195,8.528m-3.651,1.425c-3.049,0.939 -6.543,1.486 -10.222,1.486c-0.723,0 -1.439,-0.019 -2.148,-0.062l12.715,-18.645c0.56,2.459 0.872,5.137 0.872,7.923c0,3.312 -0.441,6.474 -1.217,9.298m-10.222,11.771c-3.567,0 -6.815,-3.193 -8.931,-8.079c2.751,0.637 5.76,0.987 8.931,0.987c3.17,0 6.181,-0.35 8.934,-0.987c-2.117,4.886 -5.368,8.079 -8.934,8.079m-11.439,-21.069c0,-3.888 0.609,-7.572 1.654,-10.738c2.944,-0.863 6.28,-1.356 9.785,-1.356c1.055,0 2.091,0.045 3.111,0.129l-6.807,9.917c-0.176,0.149 -0.312,0.343 -0.387,0.574l-6.476,9.434c-0.565,-2.47 -0.88,-5.159 -0.88,-7.96m11.439,-21.069c3.199,0 6.138,2.568 8.24,6.618c-2.563,-0.543 -5.333,-0.836 -8.24,-0.836c-2.905,0 -5.675,0.293 -8.239,0.836c2.101,-4.05 5.041,-6.618 8.239,-6.618m1.61,21.748l-6.653,9.759c-1.257,-0.177 -2.471,-0.412 -3.634,-0.706l6.479,-9.448l3.808,0.395Zm-2.163,-2.79l6.516,-9.497c1.21,0.201 2.38,0.462 3.494,0.776l-6.212,9.113l-3.798,-0.392Zm-13.319,9.984c-4.383,-2.116 -7.195,-5.179 -7.195,-8.528c0,-3.43 2.952,-6.565 7.523,-8.682c-0.703,2.861 -1.087,6.011 -1.087,9.337c0,2.77 0.265,5.415 0.759,7.873m26.163,-21.206c-2.584,-6.624 -7.077,-10.927 -12.291,-10.927c-5.213,0 -9.706,4.303 -12.291,10.927c-7.213,2.511 -11.969,7.197 -11.969,12.678c0,5.342 4.518,9.929 11.427,12.483c2.466,7.473 7.235,12.434 12.833,12.434c5.599,0 10.366,-4.961 12.833,-12.434c6.909,-2.554 11.427,-7.141 11.427,-12.483c0,-5.481 -4.757,-10.167 -11.969,-12.678" style="fill:#9d1e23;fill-rule:nonzero;"/></g></svg>